<svg width="115" height="44" fill="none" xmlns="http://www.w3.org/2000/svg"><path d="M-.001 25.44V.326h3.225v21.848h8.913v3.264l-12.138.002zM21.009.326v25.112h-3.225V.327l3.225-.001zm27.994 3.437c2.493 2.511 3.74 5.54 3.74 9.088 0 3.546-1.247 6.576-3.74 9.088-2.493 2.51-5.5 3.766-9.022 3.766-3.522 0-6.529-1.255-9.023-3.766-2.493-2.512-3.739-5.542-3.739-9.088 0-3.548 1.246-6.577 3.74-9.088 2.493-2.512 5.5-3.767 9.022-3.767 3.522 0 6.53 1.255 9.022 3.767zm-9.022-.487c-2.629 0-4.87.934-6.724 2.802-1.854 1.868-2.781 4.125-2.781 6.773 0 2.646.93 4.907 2.789 6.78 1.86 1.873 4.098 2.81 6.716 2.81 2.628 0 4.87-.937 6.724-2.81s2.782-4.134 2.782-6.78c0-2.648-.928-4.905-2.782-6.773-1.854-1.868-4.096-2.802-6.724-2.802zM58.64.327h2.945L71.869 18.25V.327h3.242v25.112H72.29L61.865 7.295V25.44H58.64V.327zm26.278 0v25.112h-3.226V.327h3.226zm25.89 19.132l2.415 2.182c-2.95 2.71-6.072 4.065-9.365 4.065-3.522 0-6.524-1.25-9.007-3.75-2.483-2.502-3.724-5.526-3.724-9.073 0-3.536 1.241-6.56 3.724-9.072C97.334 1.3 100.336.044 103.858.044c3.293 0 6.415 1.356 9.365 4.065l-2.415 2.214c-2.223-1.989-4.54-2.983-6.95-2.983-2.608 0-4.839.932-6.693 2.794-1.855 1.862-2.782 4.112-2.782 6.749 0 2.647.927 4.902 2.782 6.765 1.854 1.862 4.085 2.793 6.693 2.793 2.41 0 4.727-.993 6.95-2.982zM52.977 40.864h3.345v.673h-4.075V34.31h.73v6.554zm4.56-1.532c.021.238.078.463.173.674.18.406.506.73.913.908.203.09.422.133.659.133.358 0 .667-.083.927-.25.26-.167.458-.359.593-.577l.517.43c-.284.36-.596.618-.938.775-.345.157-.72.237-1.1.235a2.51 2.51 0 01-.978-.189c-.3-.126-.559-.3-.775-.525a2.51 2.51 0 01-.512-.797 2.63 2.63 0 01-.188-1.001c0-.36.061-.694.183-1 .122-.306.29-.572.507-.796.216-.225.47-.4.76-.527.29-.125.604-.188.943-.188.358 0 .679.065.962.194.284.13.522.301.715.516.193.214.34.466.441.755.102.29.153.597.153.924v.306h-3.955zm3.225-.551c0-.456-.136-.825-.406-1.108-.27-.283-.649-.424-1.135-.424-.216 0-.426.043-.629.127-.203.086-.38.2-.532.343-.15.14-.274.306-.365.49-.09.177-.137.373-.137.572h3.204zm2.31 3.716c.196.265.451.478.766.638.314.16.664.24 1.049.24.337 0 .625-.05.861-.148a1.5 1.5 0 00.573-.403c.146-.17.25-.37.315-.597.063-.228.095-.472.095-.73v-.858h-.02a1.83 1.83 0 01-.79.694c-.31.136-.645.206-.984.204-.344 0-.667-.061-.967-.183a2.443 2.443 0 01-.786-.506 2.32 2.32 0 01-.527-.77 2.43 2.43 0 01-.193-.97 2.545 2.545 0 01.685-1.757c.213-.224.466-.399.76-.526.293-.125.617-.188.968-.188.142 0 .292.013.45.04.346.06.672.206.948.424.156.12.301.27.437.455h.02v-.797h.668v4.738c0 .258-.032.534-.095.826-.065.293-.19.562-.376.807a2.13 2.13 0 01-.775.613c-.332.163-.764.245-1.298.245-.472 0-.895-.078-1.267-.236a2.935 2.935 0 01-1.013-.724l.496-.531zm.122-3.41c0 .48.183.942.512 1.292.159.166.344.3.557.397.213.1.445.148.695.148.475.003.933-.178 1.277-.505.169-.16.3-.352.39-.577.092-.224.134-.476.127-.755 0-.252-.04-.488-.122-.71a1.706 1.706 0 00-.355-.582 1.714 1.714 0 00-.567-.398 1.832 1.832 0 00-.75-.148c-.25 0-.482.05-.695.148a1.838 1.838 0 00-1.069 1.69zm8.748-.48v-.122c0-.824-.405-1.236-1.216-1.236-.555 0-1.038.187-1.45.562l-.405-.48c.446-.463 1.115-.694 2.006-.694.23 0 .452.034.665.102.212.067.396.172.552.312.155.14.28.314.375.525.095.21.142.464.142.756v2.133a7.29 7.29 0 00.081 1.072h-.649a3.915 3.915 0 01-.045-.377 5.535 5.535 0 01-.015-.399h-.02c-.197.321-.428.55-.695.69-.267.14-.594.21-.979.21-.21 0-.411-.03-.608-.088a1.548 1.548 0 01-.522-.265 1.283 1.283 0 01-.502-1.047c0-.388.1-.693.3-.914a1.83 1.83 0 01.75-.495c.3-.108.621-.176.963-.204.341-.027.654-.04.937-.04l.335-.001zm-.344.551c-.17 0-.38.01-.634.026a3.627 3.627 0 00-.73.123c-.218.057-.422.16-.598.301a.687.687 0 00-.248.562c0 .156.032.29.096.403.064.112.15.203.258.275.108.071.228.123.36.154.132.03.266.045.4.045.243 0 .455-.04.634-.123a1.286 1.286 0 00.72-.82c.057-.188.086-.388.086-.599v-.347h-.344zm3.385 2.38h-.669v-7.72h.669v7.72zm8.068-6.034c-.317-.47-.78-.705-1.389-.705a2.03 2.03 0 00-.557.077 1.55 1.55 0 00-.491.234 1.174 1.174 0 00-.482.996c0 .326.092.581.274.76.182.181.408.33.679.445.27.115.566.22.887.311.32.092.617.215.886.368.271.153.498.355.68.607.182.252.273.596.273 1.031 0 .327-.07.622-.207.883-.134.256-.32.481-.548.66-.226.176-.48.312-.76.407a2.611 2.611 0 01-.846.143 3.18 3.18 0 01-1.252-.25 2.383 2.383 0 01-1.009-.822l.67-.48c.154.266.37.478.646.639.276.16.603.24.98.24.182 0 .364-.03.546-.087.182-.058.345-.143.49-.256.144-.111.264-.25.359-.413.094-.164.14-.35.14-.562 0-.251-.052-.46-.156-.627a1.347 1.347 0 00-.415-.419 2.598 2.598 0 00-.589-.28 47.772 47.772 0 00-.679-.226 7.258 7.258 0 01-.68-.255 2.333 2.333 0 01-.587-.362 1.625 1.625 0 01-.415-.552c-.105-.22-.158-.498-.158-.832 0-.347.066-.65.198-.908.126-.251.306-.471.527-.644.22-.17.468-.296.745-.378.277-.081.561-.122.851-.122.406 0 .774.065 1.106.194.33.13.638.357.922.685l-.639.5zm6.792 3.644c0 .361-.063.694-.188 1-.119.298-.296.57-.521.798a2.39 2.39 0 01-.796.525 2.67 2.67 0 01-1.02.19c-.364 0-.7-.064-1.008-.19a2.377 2.377 0 01-.795-.525 2.4 2.4 0 01-.522-.797 2.617 2.617 0 01-.188-1.001c0-.36.062-.694.188-1 .124-.306.298-.572.522-.797.222-.224.487-.399.795-.526a2.65 2.65 0 011.009-.188c.371 0 .71.063 1.019.188.307.127.572.302.796.526.222.225.396.49.52.796.126.307.189.64.189 1v.001zm-.73 0a2.14 2.14 0 00-.127-.745 1.706 1.706 0 00-1.667-1.154c-.277 0-.526.05-.745.148-.22.1-.406.234-.558.403-.152.171-.27.372-.355.603-.084.231-.127.48-.127.745 0 .266.043.514.127.746.085.231.203.432.355.601.152.172.338.306.558.404.22.099.468.148.745.148.277 0 .525-.049.745-.148.22-.098.407-.232.562-.404.156-.169.276-.37.36-.601.085-.232.127-.48.127-.746zm2.767 2.39h-.67v-7.72h.67v7.72zm5.037 0a5.028 5.028 0 01-.024-.384 11.372 11.372 0 01-.006-.383h-.02c-.074.13-.169.25-.284.358-.115.11-.243.202-.385.28-.142.079-.293.14-.451.185-.16.044-.316.066-.471.066-.609 0-1.059-.162-1.349-.485-.29-.323-.435-.784-.435-1.383v-3.033h.669v2.645c0 .266.02.5.06.704.041.205.11.376.209.515a.9.9 0 00.395.317c.165.071.372.107.623.107.033 0 .128-.013.284-.04.179-.038.347-.115.492-.226a1.62 1.62 0 00.46-.55c.135-.246.203-.586.203-1.022v-2.45h.669v3.727c.008.351.025.702.051 1.052h-.69zm4.664-4.167h-1.369v2.819c0 .177.017.321.051.433.034.114.081.2.142.261a.48.48 0 00.218.127.977.977 0 00.279.036c.114 0 .233-.017.355-.051.12-.034.233-.078.334-.132l.03.622a2.12 2.12 0 01-1.302.123.929.929 0 01-.38-.195 1.065 1.065 0 01-.284-.387c-.075-.163-.112-.378-.112-.643v-3.013H98.54v-.612h1.003v-1.348h.67v1.348h1.368v.612zm1.885-2.449c0 .143-.05.26-.152.352a.488.488 0 01-.334.137.488.488 0 01-.335-.137.444.444 0 01-.115-.16.442.442 0 01-.038-.192c0-.143.051-.26.153-.352a.488.488 0 01.335-.138c.121 0 .232.046.334.138a.454.454 0 01.152.352zm-.152 6.615h-.67V36.76h.67v4.777zm6.406-2.39c0 .362-.063.695-.187 1.002a2.46 2.46 0 01-.522.797 2.387 2.387 0 01-.796.525 2.66 2.66 0 01-1.02.19c-.364 0-.7-.064-1.007-.19a2.38 2.38 0 01-.796-.525 2.433 2.433 0 01-.522-.797 2.619 2.619 0 01-.188-1.001c0-.36.062-.694.188-1 .125-.306.299-.572.522-.797.222-.224.488-.399.796-.526.32-.128.663-.192 1.008-.188.372 0 .71.063 1.019.188.307.127.572.302.796.526.222.225.396.49.522.796.124.307.187.64.187 1zm-.73 0a2.167 2.167 0 00-.126-.744 1.7 1.7 0 00-.923-1.006 1.797 1.797 0 00-.745-.148c-.277 0-.526.05-.745.148-.22.1-.405.234-.558.403a1.862 1.862 0 00-.354.603c-.085.231-.127.48-.127.745 0 .266.042.514.127.746.084.231.203.432.354.601.153.172.338.306.558.404.22.099.468.148.745.148.277 0 .525-.049.745-.148.22-.098.407-.232.562-.404.156-.169.276-.37.36-.601.085-.232.127-.48.127-.746v-.001zm2.584-2.388c.014.13.022.257.026.383.003.126.005.254.005.383h.02c.074-.129.169-.248.284-.358.238-.219.525-.378.837-.464.158-.044.315-.066.47-.066.609 0 1.058.161 1.349.485.29.323.435.784.435 1.383v3.032h-.669v-2.644c0-.531-.09-.937-.274-1.22-.182-.283-.52-.424-1.013-.424a2.744 2.744 0 00-.283.041 1.226 1.226 0 00-.492.224 1.615 1.615 0 00-.461.552c-.135.245-.203.585-.203 1.021v2.45h-.669v-3.726a20.515 20.515 0 00-.051-1.052h.689zm-68.592 1.967H0V37.38h42.983l-.001 1.346z" fill="#3172B9"/></svg>